<?xml version="1.0" encoding="UTF-8"?>
<svg id="Capa_2" data-name="Capa 2" xmlns="http://www.w3.org/2000/svg" viewBox="0 0 987.71 130.9">
  <defs>
    <style>
      .cls-1 {
        fill: #fff;
      }

      .cls-2 {
        fill: #008eff;
      }
    </style>
  </defs>
  <g id="Capa_1-2" data-name="Capa 1">
    <g>
      <path class="cls-2" d="M0,0c.51.06.96.06,1.47.06h126.24c1.02,0,1.53.51,1.53,1.53v37.72c0,1.02-.19,1.4-1.34,1.34-2.68-.06-5.36-.06-8.04,0-.96,0-1.15-.26-1.15-1.15.06-9.25,0-18.51.06-27.7,0-1.15-.32-1.34-1.4-1.34H11.62c-1.02,0-1.34.19-1.34,1.28v105.95c0,1.02.32,1.21,1.28,1.21,37.02,0,74.04,0,111.05-.06,1.15,0,1.47.26,1.47,1.4-.13,2.62-.06,5.23,0,7.79,0,.96-.26,1.21-1.21,1.21-11.42-.06-22.79,0-34.15,0H0V0h0Z"/>
      <path class="cls-1" d="M280.13,59.93c3.19-3.38,6.7-5.94,11.11-6.64,7.66-1.28,14.68.32,20.36,5.87,3.57,3.51,4.72,8.04,4.72,12.89v31.15c0,.89-.32.96-1.02.96-4.15-.06-8.3-.06-12.45,0-.83,0-1.09-.19-1.09-1.09.06-9.25,0-18.57,0-27.83,0-2.62-.64-5.11-2.17-7.21-3.32-4.6-10.08-5.36-14.93-1.66-3,2.3-4.6,5.3-4.6,9.19.06,9.19,0,18.32.06,27.51,0,.89-.19,1.15-1.15,1.15-4.15-.06-8.3-.06-12.45,0-.77,0-.96-.19-.96-.96V21.51c0-.83.26-.96.96-.96,4.15,0,8.36.06,12.51,0,.83,0,.96.32.96,1.02v36.83l.13,1.53h0ZM223.07,100.4c6.25,4.66,13.4,6.13,21.06,5.17,4.08-.51,7.98-1.72,11.49-3.96.7-.45.77-.77.38-1.53-1.47-2.68-2.81-5.43-4.15-8.17-.38-.77-.57-.83-1.28-.38-3.51,2.17-7.34,3-11.36,2.3-5.94-1.02-10.53-5.62-11.55-11.42-1.15-6.38,1.47-12.57,6.77-15.64,5.49-3.13,10.91-2.49,16.28.51.64.38.83.38,1.15-.26,1.21-2.43,2.43-4.79,3.64-7.15,1.15-2.23,1.15-2.3-1.15-3.45-6.7-3.51-13.85-4.4-21.19-2.68-12.45,2.94-21.13,13.85-21,25.72.19,8.74,3.89,15.7,10.91,20.93h0ZM203.09,55.4v50.8c0,6.32-1.85,12.06-6.38,16.72-3.89,4.02-8.81,6.13-14.17,7.28-1.21.26-2.49.26-3.64.7h-10.15c-1.4-.64-2.94-.57-4.4-.89-7.21-1.66-13.02-5.3-16.47-12.06-.51-.98-.28-1.72.7-2.23,3.19-1.53,6.38-3.13,9.57-4.66.45-.26.77-.51,1.15.19,2.62,4.28,6.7,6.25,11.49,6.96,3.7.57,7.28.26,10.66-1.4,4.79-2.43,7.02-6.51,7.15-11.81.06-2.36,0-4.72,0-7.08-.38-.19-.45.13-.57.26-8.74,10.28-24.7,9.77-33.7,1.02-6.19-6-8.55-13.53-8.04-22.02.38-6.32,2.55-12,6.96-16.72,5.62-6,12.7-8.3,20.81-7.47,5.68.57,10.53,3.06,14.55,7.6,0-1.91.06-3.51,0-5.11-.06-.89.19-1.15,1.15-1.15,4.08.06,8.23.06,12.32,0,.83.06,1.02.26,1.02,1.09h0ZM188.98,80.35c.26-8.74-5.23-15-13.34-15.19-7.98-.26-14.11,5.74-14.17,14.04-.06,8.23,5.3,14.11,13.66,14.3,7.34.26,13.59-5.68,13.85-13.15h0ZM441.92,54.31v75.25h-13.34c-.89,0-1.15-.19-1.15-1.09.06-9.77,0-19.53,0-29.3v-1.21c-.7.64-1.4,1.28-2.04,1.91-9,8.42-23.23,7.6-31.72-.19-6.57-6.06-9.06-13.79-8.49-22.59.45-6.64,2.87-12.45,7.6-17.23,9.13-9.25,25.66-9.51,34.34.45,0,0,.06.06.26.13v-3c.06-.96-.45-2.23.19-2.87.64-.57,1.91-.19,2.87-.19h10.21c.51,0,.89.13,1.28-.06h0ZM427.88,79.59c0-8.3-5.74-14.36-13.72-14.42-7.85,0-13.79,6-13.85,14.04-.06,8.3,5.68,14.3,13.79,14.3,7.85.06,13.72-5.94,13.79-13.91h0ZM86.67,104.23h-18.45c-.77,0-1.21-.26-1.72-.83-7.47-9.7-14.93-19.34-22.34-29.1-.77-1.02-1.6-.96-2.55-.96-1.19,0-1.79.6-1.79,1.79v28.08c0,.83-.19,1.09-1.09,1.09-4.4-.06-8.81-.06-13.21,0-.77,0-.96-.19-.96-.96V25.02c0-.89.32-1.02,1.09-1.02,8.87,0,17.74-.06,26.55.06,5.04.06,9.96.96,14.55,3.32,5.36,2.81,8.94,7.08,10.59,12.96,1.6,5.74,1.53,11.49-.45,17.04-2.55,7.34-7.79,12-15.06,14.49-.38.13-.77.26-1.21.38-.06,0-.13.13-.19.19,8.74,10.53,17.42,21.06,26.23,31.78h0ZM61.91,44.61c-1.28-4.6-4.85-6.77-9.25-7.79-4.02-.96-8.17-.57-12.25-.64-.83,0-.57.57-.57.96v22.98c0,.32-.32.89.51.89,4.02-.13,8.11.38,12.13-.57,9.32-2.11,11.23-9.25,9.45-15.83h0ZM378.8,80.1c0,.83-.19,1.15-1.15,1.15-6.06-.06-12.13,0-18.19,0h-18.19c-.96,0-1.21.13-1.15,1.15.38,6.06,4.98,10.91,11.17,11.74,6.13.77,11.36-.83,15.38-5.74.45-.57.77-.7,1.47-.32,2.87,1.53,5.87,3,8.81,4.47.7.32.77.57.32,1.21-3.57,5.49-8.49,9.06-14.74,10.79-7.4,1.98-14.68,1.98-21.76-1.21-10.21-4.6-16.59-15.45-15.51-26.49,1.09-11.17,9.51-20.74,20.55-23.17,7.15-1.6,14.11-.83,20.55,2.74,7.4,4.15,11.17,10.72,12.19,19.02.26,1.53.32,3.13.26,4.66h0ZM364.57,72.19c-.32-1.09-.64-2.11-1.21-3.06-2.81-4.79-9.06-6.96-14.87-5.17-3.96,1.21-6.7,3.77-7.79,7.85-.32,1.34-.26,1.34,1.02,1.34h22.08c.83,0,1.02-.19.77-.96h0ZM139.9,80.29c0,.77-.26.96-1.02.96-6.13-.06-12.25,0-18.38,0h-18.32c-.77,0-1.02.19-.96,1.02.32,6.13,4.91,11.11,11.11,11.87,6.13.83,11.36-.83,15.38-5.68.51-.64.89-.64,1.6-.32,2.87,1.47,5.68,2.94,8.62,4.34.89.45.83.77.38,1.47-4.4,6.7-10.79,10.28-18.57,11.49-5.94.89-11.74.57-17.36-1.85-10.47-4.6-16.91-14.81-16.02-26.17.77-10.02,5.94-17.42,14.93-21.7,10.28-4.79,20.36-3.89,29.55,3,5.36,4.02,7.98,9.83,8.81,16.47.26,1.66.32,3.38.26,5.11h0ZM125.86,73.14c-.19-1.79-.83-3.32-1.85-4.72-2.94-4.28-8.68-6.13-14.17-4.6-4.08,1.15-6.89,3.7-8.04,7.85-.38,1.4-.32,1.4,1.09,1.4l22.98.06h0Z"/>
      <g>
        <path class="cls-1" d="M496.25,92.87c-1.59-3.67-2.38-7.93-2.38-12.78s.79-9.11,2.38-12.68c3.57-7.93,11-12.58,21.4-12.58,6.74,0,12.28,1.88,16.35,5.55,3.47,3.17,5.65,7.73,5.84,13.27h-8.52c-.3-3.66-1.68-6.54-3.76-8.62-2.38-2.08-5.85-3.27-9.91-3.27-6.54,0-11.19,3.07-13.47,8.12-1.29,2.77-1.78,6.04-1.78,10.2s.5,7.33,1.78,10.2c2.28,4.95,6.93,8.02,13.47,8.02,4.16,0,7.63-1.09,9.91-3.27,2.28-1.98,3.57-4.95,3.66-8.42h8.62c-.3,5.45-2.28,9.91-5.75,13.18-3.96,3.57-9.71,5.45-16.44,5.45-10.3,0-17.83-4.56-21.4-12.38Z"/>
        <path class="cls-1" d="M548.95,92.67c-1.68-3.66-2.48-8.02-2.48-12.58s.79-8.82,2.48-12.58c3.47-7.63,10.7-12.68,21.6-12.68s18.13,5.05,21.6,12.68c1.59,3.67,2.48,8.02,2.48,12.58s-.89,8.92-2.48,12.58c-3.47,7.63-10.7,12.68-21.6,12.68s-18.13-5.05-21.6-12.68ZM584.42,90.29c1.29-2.87,1.78-6.34,1.78-10.2s-.49-7.43-1.78-10.2c-2.28-4.95-6.84-8.12-13.87-8.12s-11.69,3.17-13.87,8.12c-1.29,2.77-1.78,6.34-1.78,10.2s.5,7.33,1.78,10.2c2.28,4.95,6.74,8.12,13.87,8.12s11.59-3.17,13.87-8.12Z"/>
        <path class="cls-1" d="M677.24,75.13v29.03h-7.93v-27.54c0-10.3-3.86-14.86-11.79-14.86-8.42,0-13.18,5.35-13.18,15.06v27.34h-7.93v-27.54c0-10.3-3.76-14.86-11.79-14.86-8.42,0-13.08,5.35-13.08,15.06v27.34h-7.93v-48.14h7.93v6.24c3.17-4.95,8.42-7.43,15.26-7.43,8.02,0,13.67,3.37,16.05,9.91,3.17-6.84,8.92-9.91,16.64-9.91,11.49,0,17.73,6.94,17.73,20.31Z"/>
        <path class="cls-1" d="M735.69,80.09c0,4.95-.89,9.51-2.58,13.27-3.37,7.43-10.1,11.89-19.61,11.89-7.33,0-13.37-2.77-17.04-8.22v27.14h-7.93V56.01h7.73v7.43c3.67-5.75,9.71-8.62,17.24-8.62,9.51,0,16.25,4.46,19.61,11.99,1.68,3.76,2.58,8.22,2.58,13.27ZM727.27,80.09c0-4.06-.69-7.53-1.88-10.1-2.38-5.45-7.23-8.22-13.67-8.22-9.31,0-15.35,6.14-15.35,17.14v2.38c0,11,6.04,17.14,15.35,17.14,6.44,0,11.29-2.87,13.67-8.22,1.19-2.67,1.88-6.04,1.88-10.1Z"/>
        <path class="cls-1" d="M744.7,34.22h7.93v69.94h-7.93V34.22Z"/>
        <path class="cls-1" d="M762.93,42.44c0-2.87,2.08-4.95,5.35-4.95,2.87,0,5.15,2.08,5.15,4.95s-2.28,4.95-5.15,4.95c-3.27,0-5.35-1.98-5.35-4.95ZM764.22,56.01h7.93v48.14h-7.93v-48.14Z"/>
        <path class="cls-1" d="M825.05,75.63v28.53h-7.93v-6.84c-3.37,5.15-9.21,8.02-17.83,8.02-8.02,0-14.17-2.67-16.64-8.12-.79-1.88-1.19-3.86-1.19-6.34s.4-4.36,1.19-6.14c3.27-7.13,11.99-8.92,22.88-8.92h11.59v-1.59c0-2.97-.4-5.05-1.29-7.13-1.68-3.86-5.65-5.65-11.69-5.65s-10.2,1.59-11.99,5.35c-.59,1.39-.89,2.67-.89,4.26h-8.02c.1-2.77.5-5.05,1.49-7.03,2.77-6.44,9.81-9.21,19.32-9.21,10.01,0,16.25,3.07,19.02,9.51,1.39,2.97,1.98,6.84,1.98,11.29ZM815.54,91.08c1.09-2.38,1.59-5.25,1.59-8.72v-.5h-11c-7.43,0-13.87.99-15.75,5.15-.4.89-.69,1.98-.69,3.17,0,1.39.3,2.58.69,3.57,1.59,3.57,5.75,4.95,10.9,4.95,7.23,0,11.99-2.67,14.27-7.63Z"/>
        <path class="cls-1" d="M878.64,75.03v29.12h-7.93v-27.64c0-10.2-4.06-14.76-12.48-14.76-9.01,0-13.97,5.25-13.97,15.06v27.34h-7.93v-48.14h7.93v6.54c3.37-5.25,8.82-7.73,15.95-7.73,11.89,0,18.43,6.84,18.43,20.21Z"/>
        <path class="cls-1" d="M889.54,92.87c-1.59-3.67-2.38-7.93-2.38-12.78s.79-9.11,2.38-12.68c3.57-7.93,11-12.58,21.4-12.58,6.74,0,12.28,1.88,16.35,5.55,3.47,3.17,5.65,7.73,5.84,13.27h-8.52c-.3-3.66-1.68-6.54-3.76-8.62-2.38-2.08-5.84-3.27-9.91-3.27-6.54,0-11.19,3.07-13.47,8.12-1.29,2.77-1.78,6.04-1.78,10.2s.5,7.33,1.78,10.2c2.28,4.95,6.93,8.02,13.47,8.02,4.16,0,7.63-1.09,9.91-3.27,2.28-1.98,3.57-4.95,3.67-8.42h8.62c-.3,5.45-2.28,9.91-5.75,13.18-3.96,3.57-9.71,5.45-16.44,5.45-10.3,0-17.83-4.56-21.4-12.38Z"/>
        <path class="cls-1" d="M979.49,87.22h7.93c-.4,5.15-2.38,9.21-5.75,12.38-4.16,3.67-10.11,5.65-17.24,5.65-10.9,0-18.72-4.66-22.19-12.58-1.68-3.47-2.48-7.63-2.48-12.58s.79-9.11,2.48-12.68c3.47-7.83,11-12.58,21.6-12.58s18.03,4.76,21.4,12.28c1.88,4.36,2.48,8.82,2.48,14.76h-39.92c.2,3.27.69,6.14,1.78,8.62,2.38,5.25,7.43,8.22,14.76,8.22,4.66,0,8.72-1.19,11.39-3.57,2.18-1.98,3.47-4.85,3.76-7.93ZM949.57,69.78c-.79,1.88-1.29,3.76-1.59,6.04h31.6c-.3-2.58-.79-4.56-1.59-6.54-2.28-5.05-7.03-7.83-14.07-7.83s-11.99,2.87-14.36,8.32Z"/>
      </g>
    </g>
  </g>
</svg>