<?xml version="1.0" encoding="UTF-8"?>
<svg id="Capa_2" data-name="Capa 2" xmlns="http://www.w3.org/2000/svg" viewBox="0 0 563.14 267.51">
  <defs>
    <style>
      .cls-1 {
        fill: #050048;
      }

      .cls-2 {
        fill: #008eff;
      }

      .cls-3 {
        fill: #3b486a;
      }
    </style>
  </defs>
  <g id="Capa_1-2" data-name="Capa 1">
    <g>
      <g id="Capa_2-2" data-name="Capa 2-2">
        <g id="uuid-3ce3cd0d-24a0-4867-bca6-b46227b43be8" data-name="Capa 1-2">
          <path class="cls-2" d="M0,0c.65.08,1.22.08,1.87.08h160.87c1.3,0,1.95.65,1.95,1.95v48.07c0,1.3-.24,1.79-1.71,1.71-3.42-.08-6.83-.08-10.25,0-1.22,0-1.46-.33-1.46-1.46.08-11.79,0-23.59.08-35.3,0-1.46-.41-1.71-1.79-1.71H14.8c-1.3,0-1.71.24-1.71,1.63v135.01c0,1.3.41,1.55,1.63,1.55,47.17,0,94.34,0,141.52-.08,1.46,0,1.87.33,1.87,1.79-.16,3.33-.08,6.67,0,9.92,0,1.22-.33,1.55-1.55,1.55-14.56-.08-29.04,0-43.51,0H0V0h0Z"/>
          <path class="cls-1" d="M356.96,76.37c4.07-4.31,8.54-7.56,14.15-8.46,9.76-1.63,18.71.41,25.94,7.48,4.55,4.47,6.02,10.25,6.02,16.43v39.69c0,1.14-.41,1.22-1.3,1.22-5.29-.08-10.57-.08-15.86,0-1.06,0-1.38-.24-1.38-1.38.08-11.79,0-23.67,0-35.46,0-3.33-.81-6.51-2.77-9.19-4.23-5.86-12.85-6.83-19.03-2.11-3.82,2.93-5.86,6.75-5.86,11.71.08,11.71,0,23.34.08,35.05,0,1.14-.24,1.46-1.46,1.46-5.29-.08-10.57-.08-15.86,0-.98,0-1.22-.24-1.22-1.22V27.41c0-1.06.33-1.22,1.22-1.22,5.29,0,10.65.08,15.94,0,1.06,0,1.22.41,1.22,1.3v46.93l.16,1.95h0ZM284.25,127.93c7.97,5.94,17.08,7.81,26.84,6.59,5.21-.65,10.17-2.2,14.64-5.04.89-.57.98-.98.49-1.95-1.87-3.42-3.58-6.91-5.29-10.41-.49-.98-.73-1.06-1.63-.49-4.47,2.77-9.35,3.82-14.48,2.93-7.56-1.3-13.42-7.16-14.72-14.56-1.46-8.13,1.87-16.02,8.62-19.93,6.99-3.99,13.91-3.17,20.74.65.81.49,1.06.49,1.46-.33,1.55-3.09,3.09-6.1,4.64-9.11,1.46-2.85,1.46-2.93-1.46-4.39-8.54-4.47-17.65-5.61-27-3.42-15.86,3.74-26.92,17.65-26.76,32.78.24,11.14,4.96,20.01,13.91,26.68h0ZM258.8,70.6v64.74c0,8.05-2.36,15.37-8.13,21.31-4.96,5.12-11.22,7.81-18.06,9.27-1.55.33-3.17.33-4.64.89h-12.93c-1.79-.81-3.74-.73-5.61-1.14-9.19-2.11-16.59-6.75-20.98-15.37-.65-1.25-.35-2.2.89-2.85,4.07-1.95,8.13-3.99,12.2-5.94.57-.33.98-.65,1.46.24,3.33,5.45,8.54,7.97,14.64,8.87,4.72.73,9.27.33,13.58-1.79,6.1-3.09,8.95-8.3,9.11-15.05.08-3.01,0-6.02,0-9.03-.49-.24-.57.16-.73.33-11.14,13.09-31.48,12.44-42.94,1.3-7.89-7.65-10.9-17.24-10.25-28.06.49-8.05,3.25-15.29,8.87-21.31,7.16-7.65,16.18-10.57,26.51-9.52,7.24.73,13.42,3.9,18.54,9.68,0-2.44.08-4.47,0-6.51-.08-1.14.24-1.46,1.46-1.46,5.21.08,10.49.08,15.7,0,1.06.08,1.3.33,1.3,1.38h0ZM240.82,102.4c.33-11.14-6.67-19.11-17-19.36-10.17-.33-17.97,7.32-18.06,17.89-.08,10.49,6.75,17.97,17.4,18.22,9.35.33,17.32-7.24,17.65-16.75h0ZM563.14,69.21v95.89h-17c-1.14,0-1.46-.24-1.46-1.38.08-12.44,0-24.89,0-37.33v-1.55c-.89.81-1.79,1.63-2.6,2.44-11.47,10.74-29.6,9.68-40.42-.24-8.38-7.73-11.55-17.57-10.82-28.79.57-8.46,3.66-15.86,9.68-21.96,11.63-11.79,32.7-12.12,43.76.57,0,0,.08.08.33.16v-3.82c.08-1.22-.57-2.85.24-3.66.81-.73,2.44-.24,3.66-.24h13.01c.65,0,1.14.16,1.63-.08h0ZM545.25,101.42c0-10.57-7.32-18.3-17.49-18.38-10,0-17.57,7.65-17.65,17.89-.08,10.57,7.24,18.22,17.57,18.22,10,.08,17.49-7.56,17.57-17.73h0ZM110.45,132.81h-23.5c-.98,0-1.55-.33-2.2-1.06-9.52-12.36-19.03-24.64-28.47-37.09-.98-1.3-2.03-1.22-3.25-1.22-1.52,0-2.28.76-2.28,2.28v35.79c0,1.06-.24,1.38-1.38,1.38-5.61-.08-11.22-.08-16.84,0-.98,0-1.22-.24-1.22-1.22V31.88c0-1.14.41-1.3,1.38-1.3,11.31,0,22.61-.08,33.83.08,6.43.08,12.69,1.22,18.54,4.23,6.83,3.58,11.39,9.03,13.5,16.51,2.03,7.32,1.95,14.64-.57,21.72-3.25,9.35-9.92,15.29-19.19,18.46-.49.16-.98.33-1.55.49-.08,0-.16.16-.24.24,11.14,13.42,22.2,26.84,33.43,40.5h0ZM78.89,56.85c-1.63-5.86-6.18-8.62-11.79-9.92-5.12-1.22-10.41-.73-15.62-.81-1.06,0-.73.73-.73,1.22v29.28c0,.41-.41,1.14.65,1.14,5.12-.16,10.33.49,15.45-.73,11.87-2.68,14.31-11.79,12.04-20.17h0ZM482.7,102.07c0,1.06-.24,1.46-1.46,1.46-7.73-.08-15.45,0-23.18,0h-23.18c-1.22,0-1.55.16-1.46,1.46.49,7.73,6.34,13.91,14.23,14.96,7.81.98,14.48-1.06,19.6-7.32.57-.73.98-.89,1.87-.41,3.66,1.95,7.48,3.82,11.22,5.69.89.41.98.73.41,1.55-4.55,6.99-10.82,11.55-18.79,13.74-9.43,2.52-18.71,2.52-27.73-1.55-13.01-5.86-21.15-19.68-19.76-33.75,1.38-14.23,12.12-26.43,26.19-29.52,9.11-2.03,17.97-1.06,26.19,3.5,9.43,5.29,14.23,13.66,15.53,24.24.33,1.95.41,3.99.33,5.94h0ZM464.56,91.99c-.41-1.38-.81-2.68-1.55-3.9-3.58-6.1-11.55-8.87-18.95-6.59-5.04,1.55-8.54,4.8-9.92,10-.41,1.71-.33,1.71,1.3,1.71h28.14c1.06,0,1.3-.24.98-1.22h0ZM178.28,102.31c0,.98-.33,1.22-1.3,1.22-7.81-.08-15.62,0-23.42,0h-23.34c-.98,0-1.3.24-1.22,1.3.41,7.81,6.26,14.15,14.15,15.13,7.81,1.06,14.48-1.06,19.6-7.24.65-.81,1.14-.81,2.03-.41,3.66,1.87,7.24,3.74,10.98,5.53,1.14.57,1.06.98.49,1.87-5.61,8.54-13.74,13.09-23.67,14.64-7.56,1.14-14.96.73-22.12-2.36-13.34-5.86-21.55-18.87-20.41-33.35.98-12.77,7.56-22.2,19.03-27.65,13.09-6.1,25.94-4.96,37.66,3.82,6.83,5.12,10.17,12.53,11.22,20.98.33,2.11.41,4.31.33,6.51h0ZM160.39,93.21c-.24-2.28-1.06-4.23-2.36-6.02-3.74-5.45-11.06-7.81-18.06-5.86-5.21,1.46-8.78,4.72-10.25,10-.49,1.79-.41,1.79,1.38,1.79l29.28.08h0Z"/>
        </g>
      </g>
      <g>
        <path class="cls-3" d="M149.94,241.36c-1.32-3.06-1.99-6.62-1.99-10.67s.66-7.61,1.99-10.59c2.98-6.62,9.19-10.51,17.87-10.51,5.63,0,10.26,1.57,13.65,4.63,2.9,2.65,4.72,6.45,4.88,11.09h-7.12c-.25-3.06-1.41-5.46-3.14-7.2-1.99-1.74-4.88-2.73-8.27-2.73-5.46,0-9.35,2.57-11.25,6.79-1.08,2.32-1.49,5.05-1.49,8.52s.41,6.12,1.49,8.52c1.9,4.14,5.79,6.7,11.25,6.7,3.48,0,6.37-.91,8.27-2.73,1.9-1.65,2.98-4.14,3.06-7.03h7.2c-.25,4.55-1.9,8.27-4.8,11.01-3.31,2.98-8.11,4.55-13.74,4.55-8.61,0-14.9-3.81-17.87-10.34Z"/>
        <path class="cls-3" d="M193.97,241.2c-1.41-3.06-2.07-6.7-2.07-10.51s.66-7.36,2.07-10.51c2.9-6.37,8.94-10.59,18.04-10.59s15.14,4.22,18.04,10.59c1.32,3.06,2.07,6.7,2.07,10.51s-.74,7.45-2.07,10.51c-2.9,6.37-8.94,10.59-18.04,10.59s-15.14-4.22-18.04-10.59ZM223.59,239.21c1.08-2.4,1.49-5.3,1.49-8.52s-.41-6.21-1.49-8.52c-1.9-4.14-5.71-6.79-11.59-6.79s-9.76,2.65-11.59,6.79c-1.08,2.32-1.49,5.3-1.49,8.52s.41,6.12,1.49,8.52c1.9,4.14,5.63,6.79,11.59,6.79s9.68-2.65,11.59-6.79Z"/>
        <path class="cls-3" d="M301.13,226.55v24.25h-6.62v-23c0-8.61-3.23-12.41-9.85-12.41-7.03,0-11.01,4.47-11.01,12.58v22.84h-6.62v-23c0-8.61-3.14-12.41-9.85-12.41-7.03,0-10.92,4.47-10.92,12.58v22.84h-6.62v-40.22h6.62v5.21c2.65-4.14,7.03-6.21,12.74-6.21,6.7,0,11.42,2.81,13.41,8.28,2.65-5.71,7.45-8.28,13.9-8.28,9.6,0,14.81,5.79,14.81,16.96Z"/>
        <path class="cls-3" d="M349.96,230.69c0,4.14-.74,7.94-2.15,11.09-2.81,6.21-8.44,9.93-16.38,9.93-6.12,0-11.17-2.32-14.23-6.87v22.67h-6.62v-56.93h6.45v6.21c3.06-4.8,8.11-7.2,14.4-7.2,7.94,0,13.57,3.72,16.38,10.01,1.41,3.14,2.15,6.87,2.15,11.09ZM342.93,230.69c0-3.39-.58-6.29-1.57-8.44-1.99-4.55-6.04-6.87-11.42-6.87-7.78,0-12.83,5.13-12.83,14.32v1.99c0,9.19,5.05,14.32,12.83,14.32,5.38,0,9.43-2.4,11.42-6.87.99-2.23,1.57-5.05,1.57-8.44Z"/>
        <path class="cls-3" d="M357.49,192.38h6.62v58.42h-6.62v-58.42Z"/>
        <path class="cls-3" d="M372.72,199.24c0-2.4,1.74-4.14,4.47-4.14,2.4,0,4.3,1.74,4.3,4.14s-1.9,4.14-4.3,4.14c-2.73,0-4.47-1.65-4.47-4.14ZM373.79,210.58h6.62v40.22h-6.62v-40.22Z"/>
        <path class="cls-3" d="M424.6,226.97v23.83h-6.62v-5.71c-2.81,4.3-7.7,6.7-14.9,6.7-6.7,0-11.83-2.23-13.9-6.79-.66-1.57-.99-3.23-.99-5.3s.33-3.64.99-5.13c2.73-5.96,10.01-7.45,19.12-7.45h9.68v-1.32c0-2.48-.33-4.22-1.08-5.96-1.41-3.23-4.72-4.72-9.76-4.72s-8.52,1.32-10.01,4.47c-.5,1.16-.74,2.23-.74,3.56h-6.7c.08-2.32.41-4.22,1.24-5.88,2.32-5.38,8.19-7.7,16.14-7.7,8.36,0,13.57,2.57,15.89,7.94,1.16,2.48,1.66,5.71,1.66,9.43ZM416.66,239.87c.91-1.99,1.32-4.39,1.32-7.28v-.41h-9.19c-6.21,0-11.59.83-13.16,4.3-.33.74-.58,1.65-.58,2.65,0,1.16.25,2.15.58,2.98,1.32,2.98,4.8,4.14,9.1,4.14,6.04,0,10.01-2.23,11.92-6.37Z"/>
        <path class="cls-3" d="M469.37,226.47v24.33h-6.62v-23.09c0-8.52-3.39-12.33-10.43-12.33-7.53,0-11.67,4.39-11.67,12.58v22.84h-6.62v-40.22h6.62v5.46c2.81-4.39,7.36-6.45,13.32-6.45,9.93,0,15.39,5.71,15.39,16.88Z"/>
        <path class="cls-3" d="M478.48,241.36c-1.32-3.06-1.99-6.62-1.99-10.67s.66-7.61,1.99-10.59c2.98-6.62,9.19-10.51,17.87-10.51,5.63,0,10.26,1.57,13.65,4.63,2.9,2.65,4.72,6.45,4.88,11.09h-7.12c-.25-3.06-1.41-5.46-3.14-7.2-1.99-1.74-4.88-2.73-8.27-2.73-5.46,0-9.35,2.57-11.25,6.79-1.08,2.32-1.49,5.05-1.49,8.52s.41,6.12,1.49,8.52c1.9,4.14,5.79,6.7,11.25,6.7,3.48,0,6.37-.91,8.27-2.73,1.9-1.65,2.98-4.14,3.06-7.03h7.2c-.25,4.55-1.9,8.27-4.8,11.01-3.31,2.98-8.11,4.55-13.74,4.55-8.61,0-14.9-3.81-17.87-10.34Z"/>
        <path class="cls-3" d="M553.62,236.65h6.62c-.33,4.3-1.99,7.7-4.8,10.34-3.48,3.06-8.44,4.72-14.4,4.72-9.1,0-15.64-3.89-18.54-10.51-1.41-2.9-2.07-6.37-2.07-10.51s.66-7.61,2.07-10.59c2.9-6.54,9.19-10.51,18.04-10.51s15.06,3.97,17.87,10.26c1.57,3.64,2.07,7.36,2.07,12.33h-33.35c.17,2.73.58,5.13,1.49,7.2,1.99,4.39,6.21,6.87,12.33,6.87,3.89,0,7.28-.99,9.52-2.98,1.82-1.66,2.9-4.06,3.14-6.62ZM528.63,222.08c-.66,1.57-1.08,3.14-1.32,5.05h26.4c-.25-2.15-.66-3.81-1.32-5.46-1.9-4.22-5.88-6.54-11.75-6.54s-10.01,2.4-12,6.95Z"/>
      </g>
    </g>
  </g>
</svg>