<?xml version="1.0" encoding="UTF-8"?>
<svg id="Capa_2" data-name="Capa 2" xmlns="http://www.w3.org/2000/svg" viewBox="0 0 630.33 300.49">
  <defs>
    <style>
      .cls-1 {
        fill: #008cff;
      }

      .cls-2 {
        fill: #82dbea;
      }

      .cls-3 {
        fill: #358dff;
      }

      .cls-4 {
        fill: #fff;
      }

      .cls-5 {
        fill: #050048;
      }
    </style>
  </defs>
  <g id="Capa_1-2" data-name="Capa 1">
    <g>
      <g>
        <path class="cls-1" d="M0,0c.73.09,1.37.09,2.09.09h180.07c1.46,0,2.18.73,2.18,2.18v53.8c0,1.46-.27,2-1.91,1.91-3.82-.09-7.65-.09-11.47,0-1.37,0-1.64-.36-1.64-1.64.09-13.2,0-26.4.09-39.51,0-1.64-.46-1.91-2-1.91H16.57c-1.46,0-1.91.27-1.91,1.82v151.12c0,1.46.46,1.73,1.82,1.73,52.8,0,105.6,0,158.4-.09,1.64,0,2.09.36,2.09,2-.18,3.73-.09,7.46,0,11.11,0,1.37-.36,1.73-1.73,1.73-16.3-.09-32.5,0-48.7,0H0V0h0Z"/>
        <path class="cls-5" d="M399.55,85.48c4.55-4.82,9.56-8.47,15.84-9.47,10.92-1.82,20.94.46,29.04,8.38,5.1,5.01,6.74,11.47,6.74,18.39v44.43c0,1.27-.46,1.37-1.46,1.37-5.92-.09-11.83-.09-17.75,0-1.18,0-1.55-.27-1.55-1.55.09-13.2,0-26.49,0-39.69,0-3.73-.91-7.28-3.1-10.29-4.73-6.55-14.38-7.65-21.3-2.37-4.28,3.28-6.55,7.56-6.55,13.11.09,13.11,0,26.13.09,39.24,0,1.27-.27,1.64-1.64,1.64-5.92-.09-11.83-.09-17.75,0-1.09,0-1.37-.27-1.37-1.37V30.68c0-1.18.36-1.37,1.37-1.37,5.92,0,11.93.09,17.84,0,1.18,0,1.37.46,1.37,1.46v52.53l.18,2.18h0ZM318.17,143.2c8.92,6.65,19.12,8.74,30.04,7.37,5.83-.73,11.38-2.46,16.39-5.64,1-.64,1.09-1.09.55-2.18-2.09-3.82-4.01-7.74-5.92-11.65-.55-1.09-.82-1.18-1.82-.55-5.01,3.1-10.47,4.28-16.2,3.28-8.47-1.46-15.02-8.01-16.48-16.3-1.64-9.1,2.09-17.93,9.65-22.3,7.83-4.46,15.57-3.55,23.21.73.91.55,1.18.55,1.64-.36,1.73-3.46,3.46-6.83,5.19-10.2,1.64-3.19,1.64-3.28-1.64-4.92-9.56-5.01-19.75-6.28-30.22-3.82-17.75,4.19-30.13,19.75-29.95,36.69.27,12.47,5.55,22.39,15.57,29.86h0ZM289.67,79.02v72.46c0,9.01-2.64,17.21-9.1,23.85-5.55,5.74-12.56,8.74-20.21,10.38-1.73.36-3.55.36-5.19,1h-14.47c-2-.91-4.19-.82-6.28-1.27-10.29-2.37-18.57-7.56-23.49-17.21-.73-1.39-.39-2.46,1-3.19,4.55-2.18,9.1-4.46,13.66-6.65.64-.36,1.09-.73,1.64.27,3.73,6.1,9.56,8.92,16.39,9.92,5.28.82,10.38.36,15.2-2,6.83-3.46,10.01-9.29,10.2-16.84.09-3.37,0-6.74,0-10.1-.55-.27-.64.18-.82.36-12.47,14.66-35.23,13.93-48.07,1.46-8.83-8.56-12.2-19.3-11.47-31.41.55-9.01,3.64-17.11,9.92-23.85,8.01-8.56,18.12-11.83,29.68-10.65,8.1.82,15.02,4.37,20.76,10.83,0-2.73.09-5.01,0-7.28-.09-1.27.27-1.64,1.64-1.64,5.83.09,11.74.09,17.57,0,1.18.09,1.46.36,1.46,1.55h0ZM269.56,114.61c.36-12.47-7.46-21.39-19.03-21.67-11.38-.36-20.12,8.19-20.21,20.03-.09,11.74,7.56,20.12,19.48,20.39,10.47.36,19.39-8.1,19.75-18.75h0ZM630.33,77.47v107.33h-19.03c-1.27,0-1.64-.27-1.64-1.55.09-13.93,0-27.86,0-41.79v-1.73c-1,.91-2,1.82-2.91,2.73-12.84,12.02-33.14,10.83-45.24-.27-9.38-8.65-12.93-19.66-12.11-32.23.64-9.47,4.1-17.75,10.83-24.58,13.02-13.2,36.6-13.56,48.98.64,0,0,.09.09.36.18v-4.28c.09-1.37-.64-3.19.27-4.1.91-.82,2.73-.27,4.1-.27h14.57c.73,0,1.27.18,1.82-.09h0ZM610.3,113.52c0-11.83-8.19-20.48-19.57-20.57-11.2,0-19.66,8.56-19.75,20.03-.09,11.83,8.1,20.39,19.66,20.39,11.2.09,19.57-8.47,19.66-19.85h0ZM123.63,148.66h-26.31c-1.09,0-1.73-.36-2.46-1.18-10.65-13.84-21.3-27.58-31.86-41.51-1.09-1.46-2.28-1.37-3.64-1.37-1.7,0-2.55.85-2.55,2.55v40.06c0,1.18-.27,1.55-1.55,1.55-6.28-.09-12.56-.09-18.84,0-1.09,0-1.37-.27-1.37-1.37V35.69c0-1.27.46-1.46,1.55-1.46,12.65,0,25.31-.09,37.87.09,7.19.09,14.2,1.37,20.76,4.73,7.65,4.01,12.74,10.1,15.11,18.48,2.28,8.19,2.18,16.39-.64,24.31-3.64,10.47-11.11,17.11-21.48,20.67-.55.18-1.09.36-1.73.55-.09,0-.18.18-.27.27,12.47,15.02,24.85,30.04,37.42,45.34h0ZM88.3,63.63c-1.82-6.55-6.92-9.65-13.2-11.11-5.74-1.37-11.65-.82-17.48-.91-1.18,0-.82.82-.82,1.37v32.77c0,.46-.46,1.27.73,1.27,5.74-.18,11.56.55,17.3-.82,13.29-3,16.02-13.2,13.47-22.58h0ZM540.3,114.25c0,1.18-.27,1.64-1.64,1.64-8.65-.09-17.3,0-25.95,0h-25.95c-1.37,0-1.73.18-1.64,1.64.55,8.65,7.1,15.57,15.93,16.75,8.74,1.09,16.2-1.18,21.94-8.19.64-.82,1.09-1,2.09-.46,4.1,2.18,8.38,4.28,12.56,6.37,1,.46,1.09.82.46,1.73-5.1,7.83-12.11,12.93-21.03,15.38-10.56,2.82-20.94,2.82-31.04-1.73-14.57-6.55-23.67-22.03-22.12-37.78,1.55-15.93,13.56-29.59,29.31-33.05,10.2-2.28,20.12-1.18,29.31,3.91,10.56,5.92,15.93,15.29,17.39,27.13.36,2.18.46,4.46.36,6.65h0ZM519.99,102.96c-.46-1.55-.91-3-1.73-4.37-4.01-6.83-12.93-9.92-21.21-7.37-5.64,1.73-9.56,5.37-11.11,11.2-.46,1.91-.36,1.91,1.46,1.91h31.5c1.18,0,1.46-.27,1.09-1.37h0ZM199.55,114.52c0,1.09-.36,1.37-1.46,1.37-8.74-.09-17.48,0-26.22,0h-26.13c-1.09,0-1.46.27-1.37,1.46.46,8.74,7.01,15.84,15.84,16.93,8.74,1.18,16.2-1.18,21.94-8.1.73-.91,1.27-.91,2.28-.46,4.1,2.09,8.1,4.19,12.29,6.19,1.27.64,1.18,1.09.55,2.09-6.28,9.56-15.38,14.66-26.49,16.39-8.47,1.27-16.75.82-24.76-2.64-14.93-6.55-24.12-21.12-22.85-37.32,1.09-14.29,8.47-24.85,21.3-30.95,14.66-6.83,29.04-5.55,42.15,4.28,7.65,5.74,11.38,14.02,12.56,23.49.36,2.37.46,4.82.36,7.28h0ZM179.52,104.33c-.27-2.55-1.18-4.73-2.64-6.74-4.19-6.1-12.38-8.74-20.21-6.55-5.83,1.64-9.83,5.28-11.47,11.2-.55,2-.46,2,1.55,2l32.77.09h0Z"/>
      </g>
      <rect class="cls-3" x="67.88" y="224.64" width="494.57" height="75.85" rx="37.92" ry="37.92"/>
      <circle class="cls-2" cx="524.53" cy="262.56" r="37.92"/>
      <path class="cls-3" d="M547.13,247.28c-.59-.79-1.49-1.31-2.47-1.42-.98-.11-1.98.2-2.72.83l-20.03,17.02c-.07.08-.17.09-.22.09s-.14,0-.22-.09c-.04-.04-.07-.07-.11-.08l-9.71-6.12c-1.68-1.05-3.82-.81-5.22.59-1.58,1.58-1.65,4.11-.18,5.78l11.17,12.63c1.09,1.24,2.67,1.95,4.32,1.95h.07c1.68-.02,3.25-.76,4.34-2.04l20.87-24.67c1.08-1.28,1.14-3.11.14-4.46v-.02h0Z"/>
      <path class="cls-4" d="M122.83,250.93v4.44h-7.54v21.9h-4.81v-21.9h-7.54v-4.44h19.89Z"/>
      <path class="cls-4" d="M140.56,268.32c0,.41-.34.71-.75.71h-14.36c.56,2.8,2.39,4.59,5.19,4.59,2.09,0,3.66-1.04,4.4-2.65.22-.34.52-.45.9-.34l3.84,1.27c-1.34,3.62-4.66,5.82-9.14,5.82-3.02,0-5.45-.93-7.28-2.8-1.79-1.9-2.69-4.37-2.69-7.46s.9-5.6,2.72-7.5c1.83-1.9,4.22-2.87,7.24-2.87s5.41.97,7.2,2.91c1.83,1.94,2.72,4.48,2.72,7.65v.67ZM125.6,265.14h10.04c-.63-2.43-2.46-3.96-5-3.96s-4.4,1.46-5.04,3.96Z"/>
      <path class="cls-4" d="M145.38,274.92c-1.72-1.9-2.57-4.37-2.57-7.42s.86-5.71,2.61-7.57c1.75-1.9,4.1-2.84,7.09-2.84,4.74,0,7.98,2.39,9.14,6.83l-3.54.82c-.67.11-1.12-.07-1.34-.63-.78-1.94-2.2-2.91-4.25-2.91-3.25,0-5.07,2.54-5.07,6.31s1.9,6.12,5.07,6.12c2.13,0,3.58-1.04,4.37-3.13.22-.63.71-.86,1.42-.71l3.47.67c-1.01,4.66-4.48,7.28-9.25,7.28-3.02,0-5.37-.93-7.13-2.8Z"/>
      <path class="cls-4" d="M182.77,265.59v11.68h-4.59v-11.27c0-3.32-.93-4.78-3.73-4.78-2.95,0-4.66,1.68-4.66,4.78v11.27h-4.63v-26.34h4.63v8.54c1.42-1.57,3.17-2.35,5.22-2.35,5.19,0,7.76,2.95,7.76,8.47Z"/>
      <path class="cls-4" d="M209.97,250.44v3.02c0,.63-.49,1.16-1.19,1.16h-2.87c-1.16,0-1.83.78-1.83,1.94v.97h4.1v4.07h-4.1v15.71h-4.63v-15.71h-1.57c-.71,0-1.16-.45-1.16-1.16v-2.91h2.72v-.97c0-3.77,2.28-6.12,6.16-6.12h4.37Z"/>
      <path class="cls-4" d="M212.14,274.92c-1.75-1.87-2.65-4.37-2.65-7.5s.9-5.67,2.65-7.54,4.1-2.8,7.05-2.8,5.34.93,7.09,2.8,2.61,4.37,2.61,7.54-.86,5.63-2.61,7.5c-1.75,1.87-4.1,2.8-7.09,2.8s-5.3-.93-7.05-2.8ZM219.19,273.61c1.6,0,2.87-.56,3.73-1.68.9-1.16,1.34-2.65,1.34-4.51s-.45-3.4-1.34-4.51c-.86-1.16-2.13-1.72-3.73-1.72s-2.87.56-3.77,1.72c-.86,1.12-1.31,2.61-1.31,4.51s.45,3.36,1.31,4.51c.9,1.12,2.16,1.68,3.77,1.68Z"/>
      <path class="cls-4" d="M243.37,257.53v2.76c0,.71-.45,1.16-1.16,1.16h-.34c-3.25,0-5,2.16-5,5.71v10.11h-4.59v-19.74h3.43c.41,0,.75.3.75.71v2.16c1.6-1.9,3.77-2.87,6.53-2.87h.37Z"/>
      <path class="cls-4" d="M257.78,274.92c-1.72-1.9-2.57-4.37-2.57-7.42s.86-5.71,2.61-7.57c1.75-1.9,4.1-2.84,7.09-2.84,4.74,0,7.98,2.39,9.14,6.83l-3.54.82c-.67.11-1.12-.07-1.34-.63-.78-1.94-2.2-2.91-4.25-2.91-3.25,0-5.07,2.54-5.07,6.31s1.9,6.12,5.07,6.12c2.13,0,3.58-1.04,4.37-3.13.22-.63.71-.86,1.42-.71l3.47.67c-1.01,4.66-4.48,7.28-9.25,7.28-3.02,0-5.37-.93-7.13-2.8Z"/>
      <path class="cls-4" d="M278.93,274.92c-1.75-1.87-2.65-4.37-2.65-7.5s.9-5.67,2.65-7.54c1.75-1.87,4.1-2.8,7.05-2.8s5.33.93,7.09,2.8c1.75,1.87,2.61,4.37,2.61,7.54s-.86,5.63-2.61,7.5c-1.75,1.87-4.1,2.8-7.09,2.8s-5.3-.93-7.05-2.8ZM285.99,273.61c1.6,0,2.87-.56,3.73-1.68.9-1.16,1.34-2.65,1.34-4.51s-.45-3.4-1.34-4.51c-.86-1.16-2.13-1.72-3.73-1.72s-2.87.56-3.77,1.72c-.86,1.12-1.31,2.61-1.31,4.51s.45,3.36,1.31,4.51c.9,1.12,2.16,1.68,3.77,1.68Z"/>
      <path class="cls-4" d="M327.93,265.48v11.79h-4.59v-11.38c0-3.25-1.08-4.66-3.47-4.66-2.8,0-3.77,1.42-3.77,4.66v11.38h-4.63v-11.38c0-3.1-1.16-4.66-3.43-4.66-2.8,0-3.81,1.49-3.81,4.74v11.31h-4.59v-19.74h3.43c.34,0,.71.3.71.71v1.42c1.27-1.68,2.95-2.54,5-2.54,2.84,0,4.85,1.04,6.08,3.13,1.42-2.09,3.32-3.13,5.71-3.13,4.74,0,7.35,3.02,7.35,8.36Z"/>
      <path class="cls-4" d="M350.36,259.92c1.6,1.83,2.39,4.29,2.39,7.39,0,6.53-3.4,10.34-9.25,10.34-2.2,0-4.07-.67-5.52-2.01v8.21h-4.63v-26.3h3.47c.34,0,.71.3.71.71v1.87c1.68-1.98,3.81-2.95,6.31-2.95,2.76,0,4.93.93,6.53,2.76ZM348.15,267.42c0-3.77-1.87-6.19-5-6.19s-5.15,2.16-5.19,5.86v.45c0,3.88,1.9,6.04,5.07,6.04s5.11-2.43,5.11-6.16Z"/>
      <path class="cls-4" d="M362.63,277.35c-3.69,0-5.93-2.2-5.93-5.9v-20.52h4.63v20.52c0,1.01.67,1.6,1.6,1.6h1.38c.71,0,1.19.49,1.19,1.19v3.1h-2.87Z"/>
      <path class="cls-4" d="M368.76,252.53c0-1.53,1.12-2.61,2.61-2.61s2.61,1.08,2.61,2.61-1.08,2.61-2.61,2.61-2.61-1.12-2.61-2.61ZM369.05,277.27v-19.74h4.63v19.74h-4.63Z"/>
      <path class="cls-4" d="M395.77,272.94c.34.11.48.49.48,1.12v3.25h-.52c-2.24,0-3.81-.82-4.74-2.43-1.57,1.83-3.92,2.76-7.05,2.76-3.88,0-6.38-2.24-6.38-5.78s2.43-5.82,7.16-6.42c1.27-.15,2.31-.34,3.17-.52.86-.19,1.38-.37,1.64-.49.26-.15.52-.34.86-.6v-.11c0-1.46-1.53-2.61-3.73-2.61-1.31,0-2.31.26-3.06.71-.3.15-.52.26-.63.37-.26.15-.86.67-.97.71-.75.45-1.6.34-2.05-.22l-1.57-1.83c.71-.93,1.72-1.79,3.1-2.57,1.38-.78,2.98-1.19,4.85-1.19,5.52,0,8.62,2.65,8.62,7.84v6.6c0,.71.26,1.19.78,1.38l.04.04ZM390.4,268.28v-.63c-1.01.86-2.57,1.38-4.78,1.53-2.54.26-3.62.97-3.62,2.5,0,1.23.97,2.05,2.57,2.05,3.88,0,5.82-1.83,5.82-5.45Z"/>
      <path class="cls-4" d="M417.53,265.59v11.68h-4.59v-11.27c0-3.32-.93-4.78-3.73-4.78s-4.44,1.68-4.44,4.78v11.27h-4.63v-19.74h3.47c.34,0,.71.3.71.71v1.64c1.38-1.83,3.21-2.72,5.45-2.72,5.19,0,7.76,2.8,7.76,8.43Z"/>
      <path class="cls-4" d="M423.8,274.92c-1.72-1.9-2.57-4.37-2.57-7.42s.86-5.71,2.61-7.57c1.75-1.9,4.1-2.84,7.09-2.84,4.74,0,7.98,2.39,9.14,6.83l-3.55.82c-.67.11-1.12-.07-1.34-.63-.78-1.94-2.2-2.91-4.25-2.91-3.25,0-5.07,2.54-5.07,6.31s1.9,6.12,5.07,6.12c2.13,0,3.58-1.04,4.37-3.13.22-.63.71-.86,1.42-.71l3.47.67c-1.01,4.66-4.48,7.28-9.25,7.28-3.02,0-5.37-.93-7.13-2.8Z"/>
      <path class="cls-4" d="M462.2,268.32c0,.41-.34.71-.75.71h-14.36c.56,2.8,2.39,4.59,5.19,4.59,2.09,0,3.66-1.04,4.4-2.65.22-.34.52-.45.9-.34l3.84,1.27c-1.34,3.62-4.66,5.82-9.14,5.82-3.02,0-5.45-.93-7.28-2.8-1.79-1.9-2.69-4.37-2.69-7.46s.9-5.6,2.72-7.5c1.83-1.9,4.22-2.87,7.24-2.87s5.41.97,7.2,2.91c1.83,1.94,2.72,4.48,2.72,7.65v.67ZM447.23,265.14h10.04c-.63-2.43-2.46-3.96-5-3.96s-4.4,1.46-5.04,3.96Z"/>
    </g>
  </g>
</svg>