<?xml version="1.0" encoding="UTF-8"?>
<svg id="Capa_2" data-name="Capa 2" xmlns="http://www.w3.org/2000/svg" viewBox="0 0 672.07 199.08">
  <defs>
    <style>
      .cls-1 {
        fill: #358dff;
      }

      .cls-2 {
        fill: #fff;
      }
    </style>
  </defs>
  <g id="Capa_1-2" data-name="Capa 1">
    <g id="Capa_2-2" data-name="Capa 2-2">
      <g id="uuid-d0aef341-7914-4728-9b18-b8199e825ab4" data-name="Capa 1-2">
        <path class="cls-1" d="M0,0c.78.1,1.46.1,2.23.1h191.99c1.55,0,2.33.78,2.33,2.33v57.36c0,1.55-.29,2.14-2.04,2.04-4.08-.1-8.15-.1-12.23,0-1.46,0-1.75-.39-1.75-1.75.1-14.07,0-28.15.1-42.13,0-1.75-.49-2.04-2.14-2.04H17.67c-1.55,0-2.04.29-2.04,1.94v161.13c0,1.55.49,1.84,1.94,1.84,56.3,0,112.59,0,168.89-.1,1.75,0,2.23.39,2.23,2.14-.19,3.98-.1,7.96,0,11.84,0,1.46-.39,1.84-1.84,1.84-17.37-.1-34.65,0-51.93,0H0V0h0Z"/>
        <path class="cls-2" d="M426.01,91.14c4.85-5.14,10.19-9.03,16.89-10.09,11.65-1.94,22.32.49,30.96,8.93,5.44,5.34,7.18,12.23,7.18,19.61v47.37c0,1.36-.49,1.46-1.55,1.46-6.31-.1-12.62-.1-18.93,0-1.26,0-1.65-.29-1.65-1.65.1-14.07,0-28.25,0-42.32,0-3.98-.97-7.77-3.3-10.97-5.05-6.99-15.34-8.15-22.71-2.52-4.56,3.49-6.99,8.06-6.99,13.98.1,13.98,0,27.86.1,41.83,0,1.36-.29,1.75-1.75,1.75-6.31-.1-12.62-.1-18.93,0-1.16,0-1.46-.29-1.46-1.46V32.71c0-1.26.39-1.46,1.46-1.46,6.31,0,12.72.1,19.02,0,1.26,0,1.46.49,1.46,1.55v56.01l.19,2.33h0ZM339.24,152.68c9.51,7.09,20.38,9.32,32.03,7.86,6.21-.78,12.13-2.62,17.47-6.02,1.07-.68,1.16-1.16.58-2.33-2.23-4.08-4.27-8.25-6.31-12.42-.58-1.16-.87-1.26-1.94-.58-5.34,3.3-11.16,4.56-17.28,3.49-9.03-1.55-16.02-8.54-17.57-17.37-1.75-9.71,2.23-19.12,10.29-23.78,8.35-4.76,16.6-3.79,24.75.78.97.58,1.26.58,1.75-.39,1.84-3.69,3.69-7.28,5.53-10.87,1.75-3.4,1.75-3.49-1.75-5.24-10.19-5.34-21.06-6.7-32.23-4.08-18.93,4.46-32.13,21.06-31.93,39.12.29,13.3,5.92,23.88,16.6,31.84h0ZM308.86,84.25v77.26c0,9.61-2.81,18.34-9.71,25.43-5.92,6.11-13.39,9.32-21.55,11.07-1.84.39-3.79.39-5.53,1.07h-15.43c-2.14-.97-4.46-.87-6.7-1.36-10.97-2.52-19.8-8.06-25.04-18.34-.78-1.49-.42-2.62,1.07-3.4,4.85-2.33,9.71-4.76,14.56-7.09.68-.39,1.16-.78,1.75.29,3.98,6.5,10.19,9.51,17.47,10.58,5.63.87,11.07.39,16.21-2.14,7.28-3.69,10.68-9.9,10.87-17.96.1-3.59,0-7.18,0-10.77-.58-.29-.68.19-.87.39-13.3,15.63-37.56,14.85-51.25,1.55-9.42-9.12-13.01-20.58-12.23-33.49.58-9.61,3.88-18.25,10.58-25.43,8.54-9.12,19.32-12.62,31.64-11.36,8.64.87,16.02,4.66,22.13,11.55,0-2.91.1-5.34,0-7.77-.1-1.36.29-1.75,1.75-1.75,6.21.1,12.52.1,18.73,0,1.26.1,1.55.39,1.55,1.65h0ZM287.4,122.2c.39-13.3-7.96-22.81-20.29-23.1-12.13-.39-21.45,8.74-21.55,21.35-.1,12.52,8.06,21.45,20.77,21.74,11.16.39,20.67-8.64,21.06-20h0ZM672.07,82.6v114.44h-20.29c-1.36,0-1.75-.29-1.75-1.65.1-14.85,0-29.7,0-44.55v-1.84c-1.07.97-2.14,1.94-3.11,2.91-13.69,12.81-35.33,11.55-48.24-.29-10-9.22-13.78-20.97-12.91-34.36.68-10.09,4.37-18.93,11.55-26.21,13.88-14.07,39.02-14.46,52.22.68,0,0,.1.1.39.19v-4.56c.1-1.46-.68-3.4.29-4.37.97-.87,2.91-.29,4.37-.29h15.53c.78,0,1.36.19,1.94-.1h0ZM650.71,121.04c0-12.62-8.74-21.84-20.87-21.94-11.94,0-20.97,9.12-21.06,21.35-.1,12.62,8.64,21.74,20.97,21.74,11.94.1,20.87-9.03,20.97-21.16h0ZM131.81,158.5h-28.05c-1.16,0-1.84-.39-2.62-1.26-11.36-14.75-22.71-29.41-33.97-44.26-1.16-1.55-2.43-1.46-3.88-1.46-1.81,0-2.72.91-2.72,2.72v42.71c0,1.26-.29,1.65-1.65,1.65-6.7-.1-13.39-.1-20.09,0-1.16,0-1.46-.29-1.46-1.46V38.05c0-1.36.49-1.55,1.65-1.55,13.49,0,26.98-.1,40.38.1,7.67.1,15.14,1.46,22.13,5.05,8.15,4.27,13.59,10.77,16.11,19.7,2.43,8.74,2.33,17.47-.68,25.92-3.88,11.16-11.84,18.25-22.91,22.03-.58.19-1.16.39-1.84.58-.1,0-.19.19-.29.29,13.3,16.02,26.5,32.03,39.89,48.34h0ZM94.15,67.85c-1.94-6.99-7.38-10.29-14.07-11.84-6.11-1.46-12.42-.87-18.64-.97-1.26,0-.87.87-.87,1.46v34.94c0,.49-.49,1.36.78,1.36,6.11-.19,12.33.58,18.44-.87,14.17-3.2,17.08-14.07,14.37-24.07h0ZM576.07,121.81c0,1.26-.29,1.75-1.75,1.75-9.22-.1-18.44,0-27.66,0h-27.66c-1.46,0-1.84.19-1.75,1.75.58,9.22,7.57,16.6,16.99,17.86,9.32,1.16,17.28-1.26,23.39-8.74.68-.87,1.16-1.07,2.23-.49,4.37,2.33,8.93,4.56,13.39,6.79,1.07.49,1.16.87.49,1.84-5.44,8.35-12.91,13.78-22.42,16.4-11.26,3.01-22.32,3.01-33.1-1.84-15.53-6.99-25.24-23.49-23.59-40.28,1.65-16.99,14.46-31.55,31.25-35.23,10.87-2.43,21.45-1.26,31.25,4.17,11.26,6.31,16.99,16.31,18.54,28.92.39,2.33.49,4.76.39,7.09h0ZM554.43,109.78c-.49-1.65-.97-3.2-1.84-4.66-4.27-7.28-13.78-10.58-22.62-7.86-6.02,1.84-10.19,5.73-11.84,11.94-.49,2.04-.39,2.04,1.55,2.04h33.58c1.26,0,1.55-.29,1.16-1.46h0ZM212.76,122.11c0,1.16-.39,1.46-1.55,1.46-9.32-.1-18.64,0-27.95,0h-27.86c-1.16,0-1.55.29-1.46,1.55.49,9.32,7.47,16.89,16.89,18.05,9.32,1.26,17.28-1.26,23.39-8.64.78-.97,1.36-.97,2.43-.49,4.37,2.23,8.64,4.46,13.1,6.6,1.36.68,1.26,1.16.58,2.23-6.7,10.19-16.4,15.63-28.25,17.47-9.03,1.36-17.86.87-26.4-2.81-15.92-6.99-25.72-22.52-24.36-39.8,1.16-15.24,9.03-26.5,22.71-33,15.63-7.28,30.96-5.92,44.94,4.56,8.15,6.11,12.13,14.95,13.39,25.04.39,2.52.49,5.14.39,7.77h0ZM191.41,111.23c-.29-2.72-1.26-5.05-2.81-7.18-4.46-6.5-13.2-9.32-21.55-6.99-6.21,1.75-10.48,5.63-12.23,11.94-.58,2.14-.49,2.14,1.65,2.14l34.94.1h0Z"/>
      </g>
    </g>
  </g>
</svg>