<?xml version="1.0" encoding="UTF-8"?>
<svg id="Capa_2" data-name="Capa 2" xmlns="http://www.w3.org/2000/svg" viewBox="0 0 562.78 267.34">
  <defs>
    <style>
      .cls-1 {
        fill: #050048;
      }

      .cls-2 {
        fill: #008eff;
      }

      .cls-3 {
        fill: #3b486a;
      }
    </style>
  </defs>
  <g id="Capa_1-2" data-name="Capa 1">
    <g>
      <g id="Capa_2-2" data-name="Capa 2-2">
        <g id="uuid-b0be8274-1d4e-4945-a703-fca93f586dc5" data-name="Capa 1-2">
          <path class="cls-2" d="M0,0c.65.08,1.22.08,1.87.08h160.77c1.3,0,1.95.65,1.95,1.95v48.04c0,1.3-.24,1.79-1.71,1.71-3.41-.08-6.83-.08-10.24,0-1.22,0-1.46-.33-1.46-1.46.08-11.79,0-23.57.08-35.28,0-1.46-.41-1.71-1.79-1.71H14.79c-1.3,0-1.71.24-1.71,1.63v134.92c0,1.3.41,1.54,1.63,1.54,47.14,0,94.28,0,141.43-.08,1.46,0,1.87.33,1.87,1.79-.16,3.33-.08,6.66,0,9.92,0,1.22-.33,1.54-1.54,1.54-14.55-.08-29.02,0-43.48,0H0V0h0Z"/>
          <path class="cls-1" d="M356.74,76.32c4.06-4.31,8.53-7.56,14.14-8.45,9.75-1.63,18.69.41,25.93,7.48,4.55,4.47,6.01,10.24,6.01,16.42v39.66c0,1.14-.41,1.22-1.3,1.22-5.28-.08-10.57-.08-15.85,0-1.06,0-1.38-.24-1.38-1.38.08-11.79,0-23.65,0-35.44,0-3.33-.81-6.5-2.76-9.18-4.23-5.85-12.84-6.83-19.02-2.11-3.82,2.93-5.85,6.75-5.85,11.7.08,11.7,0,23.33.08,35.03,0,1.14-.24,1.46-1.46,1.46-5.28-.08-10.57-.08-15.85,0-.98,0-1.22-.24-1.22-1.22V27.39c0-1.06.33-1.22,1.22-1.22,5.28,0,10.65.08,15.93,0,1.06,0,1.22.41,1.22,1.3v46.9l.16,1.95h0ZM284.07,127.85c7.97,5.93,17.07,7.8,26.82,6.58,5.2-.65,10.16-2.19,14.63-5.04.89-.57.98-.98.49-1.95-1.87-3.41-3.58-6.91-5.28-10.4-.49-.98-.73-1.06-1.63-.49-4.47,2.76-9.35,3.82-14.47,2.93-7.56-1.3-13.41-7.15-14.71-14.55-1.46-8.13,1.87-16.01,8.62-19.91,6.99-3.98,13.9-3.17,20.73.65.81.49,1.06.49,1.46-.33,1.54-3.09,3.09-6.1,4.63-9.1,1.46-2.84,1.46-2.93-1.46-4.39-8.53-4.47-17.64-5.61-26.98-3.41-15.85,3.74-26.9,17.64-26.74,32.76.24,11.14,4.96,19.99,13.9,26.66h0ZM258.63,70.55v64.7c0,8.05-2.36,15.36-8.13,21.3-4.96,5.12-11.22,7.8-18.04,9.27-1.54.33-3.17.33-4.63.89h-12.92c-1.79-.81-3.74-.73-5.61-1.14-9.18-2.11-16.58-6.75-20.97-15.36-.65-1.25-.35-2.19.89-2.84,4.06-1.95,8.13-3.98,12.19-5.93.57-.33.98-.65,1.46.24,3.33,5.45,8.53,7.97,14.63,8.86,4.71.73,9.27.33,13.57-1.79,6.1-3.09,8.94-8.29,9.1-15.04.08-3.01,0-6.01,0-9.02-.49-.24-.57.16-.73.33-11.14,13.09-31.46,12.44-42.92,1.3-7.88-7.64-10.89-17.23-10.24-28.04.49-8.05,3.25-15.28,8.86-21.3,7.15-7.64,16.17-10.57,26.5-9.51,7.23.73,13.41,3.9,18.53,9.67,0-2.44.08-4.47,0-6.5-.08-1.14.24-1.46,1.46-1.46,5.2.08,10.49.08,15.69,0,1.06.08,1.3.33,1.3,1.38h0ZM240.67,102.33c.33-11.14-6.66-19.1-16.99-19.34-10.16-.33-17.96,7.32-18.04,17.88-.08,10.49,6.75,17.96,17.39,18.21,9.35.33,17.31-7.23,17.64-16.74h0ZM562.78,69.17v95.83h-16.99c-1.14,0-1.46-.24-1.46-1.38.08-12.44,0-24.87,0-37.31v-1.54c-.89.81-1.79,1.63-2.6,2.44-11.46,10.73-29.59,9.67-40.4-.24-8.37-7.72-11.54-17.56-10.81-28.77.57-8.45,3.66-15.85,9.67-21.95,11.62-11.79,32.67-12.11,43.73.57,0,0,.08.08.33.16v-3.82c.08-1.22-.57-2.84.24-3.66.81-.73,2.44-.24,3.66-.24h13c.65,0,1.14.16,1.63-.08h0ZM544.9,101.36c0-10.57-7.32-18.29-17.48-18.37-10,0-17.56,7.64-17.64,17.88-.08,10.57,7.23,18.21,17.56,18.21,10,.08,17.48-7.56,17.56-17.72h0ZM110.38,132.73h-23.49c-.98,0-1.54-.33-2.19-1.06-9.51-12.35-19.02-24.63-28.45-37.06-.98-1.3-2.03-1.22-3.25-1.22-1.52,0-2.28.76-2.28,2.28v35.76c0,1.06-.24,1.38-1.38,1.38-5.61-.08-11.22-.08-16.82,0-.98,0-1.22-.24-1.22-1.22V31.86c0-1.14.41-1.3,1.38-1.3,11.3,0,22.6-.08,33.81.08,6.42.08,12.68,1.22,18.53,4.23,6.83,3.58,11.38,9.02,13.49,16.5,2.03,7.32,1.95,14.63-.57,21.7-3.25,9.35-9.92,15.28-19.18,18.45-.49.16-.98.33-1.54.49-.08,0-.16.16-.24.24,11.14,13.41,22.19,26.82,33.41,40.48h0ZM78.84,56.81c-1.63-5.85-6.18-8.62-11.79-9.92-5.12-1.22-10.4-.73-15.61-.81-1.06,0-.73.73-.73,1.22v29.26c0,.41-.41,1.14.65,1.14,5.12-.16,10.32.49,15.44-.73,11.87-2.68,14.31-11.79,12.03-20.16h0ZM482.4,102.01c0,1.06-.24,1.46-1.46,1.46-7.72-.08-15.44,0-23.16,0h-23.16c-1.22,0-1.54.16-1.46,1.46.49,7.72,6.34,13.9,14.22,14.96,7.8.98,14.47-1.06,19.59-7.32.57-.73.98-.89,1.87-.41,3.66,1.95,7.48,3.82,11.22,5.69.89.41.98.73.41,1.54-4.55,6.99-10.81,11.54-18.78,13.74-9.43,2.52-18.69,2.52-27.72-1.54-13-5.85-21.13-19.67-19.75-33.73,1.38-14.22,12.11-26.42,26.17-29.5,9.1-2.03,17.96-1.06,26.17,3.5,9.43,5.28,14.22,13.66,15.52,24.22.33,1.95.41,3.98.33,5.93h0ZM464.27,91.93c-.41-1.38-.81-2.68-1.54-3.9-3.58-6.1-11.54-8.86-18.94-6.58-5.04,1.54-8.53,4.8-9.92,10-.41,1.71-.33,1.71,1.3,1.71h28.12c1.06,0,1.3-.24.98-1.22h0ZM178.17,102.25c0,.98-.33,1.22-1.3,1.22-7.8-.08-15.61,0-23.41,0h-23.33c-.98,0-1.3.24-1.22,1.3.41,7.8,6.26,14.14,14.14,15.12,7.8,1.06,14.47-1.06,19.59-7.23.65-.81,1.14-.81,2.03-.41,3.66,1.87,7.23,3.74,10.97,5.53,1.14.57,1.06.98.49,1.87-5.61,8.53-13.74,13.09-23.65,14.63-7.56,1.14-14.96.73-22.11-2.36-13.33-5.85-21.54-18.86-20.4-33.32.98-12.76,7.56-22.19,19.02-27.64,13.09-6.1,25.93-4.96,37.63,3.82,6.83,5.12,10.16,12.52,11.22,20.97.33,2.11.41,4.31.33,6.5h0ZM160.28,93.15c-.24-2.28-1.06-4.23-2.36-6.01-3.74-5.45-11.05-7.8-18.04-5.85-5.2,1.46-8.78,4.71-10.24,10-.49,1.79-.41,1.79,1.38,1.79l29.26.08h0Z"/>
        </g>
      </g>
      <g>
        <path class="cls-3" d="M331.96,244.02c-.91-1.98-1.32-4.3-1.32-6.86h6.53c0,1.74.25,3.23.91,4.55,1.32,3.06,4.3,4.8,9.35,4.8,4.71,0,7.94-1.32,9.1-3.97.33-.83.58-1.57.58-2.65,0-.91-.17-1.74-.5-2.4-1.41-2.98-5.38-3.8-11-4.96-5.62-1.24-10.75-3.14-12.65-7.44-.58-1.32-.83-2.56-.83-4.3s.33-3.23.99-4.55c1.9-4.3,6.86-6.78,13.81-6.78s12.07,2.4,14.22,7.03c.83,1.74,1.16,3.72,1.16,5.95h-6.37c0-1.57-.33-2.81-.83-3.89-1.24-2.73-4.22-4.14-8.27-4.14s-6.7,1.24-7.69,3.47c-.33.74-.5,1.49-.5,2.4,0,.74.17,1.49.41,1.99,1.41,3.06,6.12,3.97,10.92,5.04,6.04,1.41,11.16,3.23,13.15,7.69.58,1.32.83,2.73.83,4.38,0,1.9-.33,3.56-.99,5.04-2.15,4.8-8.02,7.28-15.63,7.28s-13.15-2.65-15.38-7.69Z"/>
        <path class="cls-3" d="M405.98,210.45v40.19h-6.62v-5.46c-2.81,4.38-7.36,6.45-13.31,6.45-9.92,0-15.38-5.71-15.38-16.87v-24.31h6.62v23.07c0,8.52,3.39,12.32,10.42,12.32,7.53,0,11.66-4.38,11.66-12.57v-22.82h6.62Z"/>
        <path class="cls-3" d="M455.19,230.54c0,4.14-.74,7.94-2.15,11.08-2.81,6.2-8.44,9.92-16.37,9.92-6.12,0-11.16-2.32-14.22-6.86v22.66h-6.62v-56.9h6.45v6.2c3.06-4.8,8.1-7.2,14.39-7.2,7.94,0,13.56,3.72,16.37,10.01,1.41,3.14,2.15,6.86,2.15,11.08ZM448.16,230.54c0-3.39-.58-6.29-1.57-8.44-1.99-4.55-6.04-6.86-11.41-6.86-7.77,0-12.82,5.13-12.82,14.31v1.99c0,9.18,5.04,14.31,12.82,14.31,5.38,0,9.43-2.4,11.41-6.86.99-2.23,1.57-5.04,1.57-8.44Z"/>
        <path class="cls-3" d="M502.08,230.54c0,4.14-.74,7.94-2.15,11.08-2.81,6.2-8.44,9.92-16.37,9.92-6.12,0-11.16-2.32-14.22-6.86v22.66h-6.62v-56.9h6.45v6.2c3.06-4.8,8.1-7.2,14.39-7.2,7.94,0,13.56,3.72,16.37,10.01,1.41,3.14,2.15,6.86,2.15,11.08ZM495.05,230.54c0-3.39-.58-6.29-1.57-8.44-1.99-4.55-6.04-6.86-11.41-6.86-7.77,0-12.82,5.13-12.82,14.31v1.99c0,9.18,5.04,14.31,12.82,14.31,5.38,0,9.43-2.4,11.41-6.86.99-2.23,1.57-5.04,1.57-8.44Z"/>
        <path class="cls-3" d="M509.6,192.25h6.62v58.39h-6.62v-58.39Z"/>
        <path class="cls-3" d="M562.12,210.45l-24.81,56.9h-6.95l7.44-17.12-16.13-39.78h7.36l12.49,32.58,13.4-32.58h7.19Z"/>
      </g>
    </g>
  </g>
</svg>