<?xml version="1.0" encoding="UTF-8"?>
<svg id="Capa_2" data-name="Capa 2" xmlns="http://www.w3.org/2000/svg" viewBox="0 0 967.44 164.27">
  <defs>
    <style>
      .cls-1 {
        fill: #050048;
      }

      .cls-2 {
        fill: #008eff;
      }

      .cls-3 {
        fill: #3b486a;
      }
    </style>
  </defs>
  <g id="Capa_1-2" data-name="Capa 1">
    <g>
      <g id="Capa_2-2" data-name="Capa 2-2">
        <g id="uuid-44a600b6-9509-4bb6-b63d-94eb8430db16" data-name="Capa 1-2">
          <path class="cls-2" d="M0,0c.64.08,1.2.08,1.84.08h158.42c1.28,0,1.92.64,1.92,1.92v47.33c0,1.28-.24,1.76-1.68,1.68-3.36-.08-6.73-.08-10.09,0-1.2,0-1.44-.32-1.44-1.44.08-11.61,0-23.23.08-34.76,0-1.44-.4-1.68-1.76-1.68H14.58c-1.28,0-1.68.24-1.68,1.6v132.95c0,1.28.4,1.52,1.6,1.52,46.45,0,92.91,0,139.36-.08,1.44,0,1.84.32,1.84,1.76-.16,3.28-.08,6.57,0,9.77,0,1.2-.32,1.52-1.52,1.52-14.34-.08-28.59,0-42.85,0H0V0h0Z"/>
          <path class="cls-1" d="M351.52,75.21c4-4.24,8.41-7.45,13.94-8.33,9.61-1.6,18.42.4,25.55,7.37,4.49,4.4,5.93,10.09,5.93,16.18v39.08c0,1.12-.4,1.2-1.28,1.2-5.21-.08-10.41-.08-15.62,0-1.04,0-1.36-.24-1.36-1.36.08-11.61,0-23.31,0-34.92,0-3.28-.8-6.41-2.72-9.05-4.16-5.77-12.65-6.73-18.74-2.08-3.76,2.88-5.77,6.65-5.77,11.53.08,11.53,0,22.99.08,34.52,0,1.12-.24,1.44-1.44,1.44-5.21-.08-10.41-.08-15.62,0-.96,0-1.2-.24-1.2-1.2V26.99c0-1.04.32-1.2,1.2-1.2,5.21,0,10.49.08,15.7,0,1.04,0,1.2.4,1.2,1.28v46.21l.16,1.92h0ZM279.92,125.98c7.85,5.85,16.82,7.69,26.43,6.49,5.13-.64,10.01-2.16,14.42-4.97.88-.56.96-.96.48-1.92-1.84-3.36-3.52-6.81-5.21-10.25-.48-.96-.72-1.04-1.6-.48-4.4,2.72-9.21,3.76-14.26,2.88-7.45-1.28-13.21-7.05-14.5-14.34-1.44-8.01,1.84-15.78,8.49-19.62,6.89-3.92,13.7-3.12,20.42.64.8.48,1.04.48,1.44-.32,1.52-3.04,3.04-6.01,4.57-8.97,1.44-2.8,1.44-2.88-1.44-4.32-8.41-4.4-17.38-5.53-26.59-3.36-15.62,3.68-26.51,17.38-26.35,32.28.24,10.97,4.89,19.7,13.7,26.27h0ZM254.85,69.52v63.75c0,7.93-2.32,15.14-8.01,20.98-4.89,5.05-11.05,7.69-17.78,9.13-1.52.32-3.12.32-4.57.88h-12.73c-1.76-.8-3.68-.72-5.53-1.12-9.05-2.08-16.34-6.65-20.66-15.14-.64-1.23-.35-2.16.88-2.8,4-1.92,8.01-3.92,12.01-5.85.56-.32.96-.64,1.44.24,3.28,5.37,8.41,7.85,14.42,8.73,4.65.72,9.13.32,13.38-1.76,6.01-3.04,8.81-8.17,8.97-14.82.08-2.96,0-5.93,0-8.89-.48-.24-.56.16-.72.32-10.97,12.89-31,12.25-42.29,1.28-7.77-7.53-10.73-16.98-10.09-27.63.48-7.93,3.2-15.06,8.73-20.98,7.05-7.53,15.94-10.41,26.11-9.37,7.13.72,13.21,3.84,18.26,9.53,0-2.4.08-4.4,0-6.41-.08-1.12.24-1.44,1.44-1.44,5.13.08,10.33.08,15.46,0,1.04.08,1.28.32,1.28,1.36h0ZM237.15,100.83c.32-10.97-6.57-18.82-16.74-19.06-10.01-.32-17.7,7.21-17.78,17.62-.08,10.33,6.65,17.7,17.14,17.94,9.21.32,17.06-7.13,17.38-16.5h0ZM554.55,68.16v94.43h-16.74c-1.12,0-1.44-.24-1.44-1.36.08-12.25,0-24.51,0-36.76v-1.52c-.88.8-1.76,1.6-2.56,2.4-11.29,10.57-29.15,9.53-39.81-.24-8.25-7.61-11.37-17.3-10.65-28.35.56-8.33,3.6-15.62,9.53-21.62,11.45-11.61,32.2-11.93,43.09.56,0,0,.08.08.32.16v-3.76c.08-1.2-.56-2.8.24-3.6.8-.72,2.4-.24,3.6-.24h12.81c.64,0,1.12.16,1.6-.08h0ZM536.93,99.87c0-10.41-7.21-18.02-17.22-18.1-9.85,0-17.3,7.53-17.38,17.62-.08,10.41,7.13,17.94,17.3,17.94,9.85.08,17.22-7.45,17.3-17.46h0ZM108.76,130.79h-23.15c-.96,0-1.52-.32-2.16-1.04-9.37-12.17-18.74-24.27-28.03-36.52-.96-1.28-2-1.2-3.2-1.2-1.5,0-2.24.75-2.24,2.24v35.24c0,1.04-.24,1.36-1.36,1.36-5.53-.08-11.05-.08-16.58,0-.96,0-1.2-.24-1.2-1.2V31.4c0-1.12.4-1.28,1.36-1.28,11.13,0,22.27-.08,33.32.08,6.33.08,12.49,1.2,18.26,4.16,6.73,3.52,11.21,8.89,13.3,16.26,2,7.21,1.92,14.42-.56,21.38-3.2,9.21-9.77,15.06-18.9,18.18-.48.16-.96.32-1.52.48-.08,0-.16.16-.24.24,10.97,13.21,21.86,26.43,32.92,39.89h0ZM77.69,55.98c-1.6-5.77-6.09-8.49-11.61-9.77-5.05-1.2-10.25-.72-15.38-.8-1.04,0-.72.72-.72,1.2v28.83c0,.4-.4,1.12.64,1.12,5.05-.16,10.17.48,15.22-.72,11.69-2.64,14.1-11.61,11.85-19.86h0ZM475.34,100.51c0,1.04-.24,1.44-1.44,1.44-7.61-.08-15.22,0-22.83,0h-22.83c-1.2,0-1.52.16-1.44,1.44.48,7.61,6.25,13.7,14.02,14.74,7.69.96,14.26-1.04,19.3-7.21.56-.72.96-.88,1.84-.4,3.6,1.92,7.37,3.76,11.05,5.61.88.4.96.72.4,1.52-4.49,6.89-10.65,11.37-18.5,13.54-9.29,2.48-18.42,2.48-27.31-1.52-12.81-5.77-20.82-19.38-19.46-33.24,1.36-14.02,11.93-26.03,25.79-29.07,8.97-2,17.7-1.04,25.79,3.44,9.29,5.21,14.02,13.46,15.3,23.87.32,1.92.4,3.92.32,5.85h0ZM457.48,90.58c-.4-1.36-.8-2.64-1.52-3.84-3.52-6.01-11.37-8.73-18.66-6.49-4.97,1.52-8.41,4.73-9.77,9.85-.4,1.68-.32,1.68,1.28,1.68h27.71c1.04,0,1.28-.24.96-1.2h0ZM175.56,100.75c0,.96-.32,1.2-1.28,1.2-7.69-.08-15.38,0-23.07,0h-22.99c-.96,0-1.28.24-1.2,1.28.4,7.69,6.17,13.94,13.94,14.9,7.69,1.04,14.26-1.04,19.3-7.13.64-.8,1.12-.8,2-.4,3.6,1.84,7.13,3.68,10.81,5.45,1.12.56,1.04.96.48,1.84-5.53,8.41-13.54,12.89-23.31,14.42-7.45,1.12-14.74.72-21.78-2.32-13.13-5.77-21.22-18.58-20.1-32.84.96-12.57,7.45-21.86,18.74-27.23,12.89-6.01,25.55-4.89,37.08,3.76,6.73,5.05,10.01,12.33,11.05,20.66.32,2.08.4,4.24.32,6.41h0ZM157.94,91.78c-.24-2.24-1.04-4.16-2.32-5.93-3.68-5.37-10.89-7.69-17.78-5.77-5.13,1.44-8.65,4.65-10.09,9.85-.48,1.76-.4,1.76,1.36,1.76l28.83.08h0Z"/>
        </g>
      </g>
      <g>
        <path class="cls-3" d="M621.48,120.76c-1.37-2.98-1.99-6.46-1.99-10.32h9.82c0,2.61.37,4.85,1.37,6.84,1.99,4.6,6.46,7.21,14.05,7.21,7.09,0,11.93-1.99,13.67-5.97.5-1.24.87-2.36.87-3.98,0-1.37-.25-2.61-.75-3.6-2.11-4.47-8.08-5.72-16.53-7.46-8.45-1.86-16.16-4.72-19.02-11.19-.87-1.99-1.24-3.85-1.24-6.46s.5-4.85,1.49-6.84c2.86-6.46,10.32-10.19,20.76-10.19s18.15,3.6,21.38,10.57c1.24,2.61,1.74,5.59,1.74,8.95h-9.57c0-2.36-.5-4.23-1.24-5.84-1.86-4.1-6.34-6.22-12.43-6.22s-10.07,1.86-11.56,5.22c-.5,1.12-.75,2.24-.75,3.6,0,1.12.25,2.24.62,2.98,2.11,4.6,9.2,5.97,16.41,7.58,9.07,2.11,16.78,4.85,19.76,11.56.87,1.99,1.24,4.1,1.24,6.59,0,2.86-.5,5.35-1.49,7.58-3.23,7.21-12.06,10.94-23.49,10.94s-19.76-3.98-23.12-11.56Z"/>
        <path class="cls-3" d="M732.74,70.29v60.41h-9.94v-8.2c-4.23,6.59-11.06,9.7-20.01,9.7-14.92,0-23.12-8.58-23.12-25.36v-36.54h9.94v34.68c0,12.8,5.1,18.52,15.66,18.52,11.31,0,17.53-6.59,17.53-18.89v-34.31h9.94Z"/>
        <path class="cls-3" d="M806.71,100.5c0,6.22-1.12,11.93-3.23,16.66-4.23,9.32-12.68,14.92-24.61,14.92-9.2,0-16.78-3.48-21.38-10.32v34.06h-9.94v-85.52h9.7v9.32c4.6-7.21,12.18-10.81,21.63-10.81,11.93,0,20.39,5.59,24.61,15.04,2.11,4.72,3.23,10.32,3.23,16.66ZM796.14,100.5c0-5.1-.87-9.45-2.36-12.68-2.98-6.84-9.07-10.32-17.15-10.32-11.68,0-19.27,7.71-19.27,21.5v2.98c0,13.8,7.58,21.5,19.27,21.5,8.08,0,14.17-3.6,17.15-10.32,1.49-3.36,2.36-7.58,2.36-12.68Z"/>
        <path class="cls-3" d="M877.19,100.5c0,6.22-1.12,11.93-3.23,16.66-4.23,9.32-12.68,14.92-24.61,14.92-9.2,0-16.78-3.48-21.38-10.32v34.06h-9.94v-85.52h9.7v9.32c4.6-7.21,12.18-10.81,21.63-10.81,11.93,0,20.39,5.59,24.61,15.04,2.11,4.72,3.23,10.32,3.23,16.66ZM866.62,100.5c0-5.1-.87-9.45-2.36-12.68-2.98-6.84-9.07-10.32-17.15-10.32-11.68,0-19.27,7.71-19.27,21.5v2.98c0,13.8,7.58,21.5,19.27,21.5,8.08,0,14.17-3.6,17.15-10.32,1.49-3.36,2.36-7.58,2.36-12.68Z"/>
        <path class="cls-3" d="M888.51,42.95h9.94v87.76h-9.94V42.95Z"/>
        <path class="cls-3" d="M967.44,70.29l-37.29,85.52h-10.44l11.19-25.73-24.24-59.79h11.06l18.77,48.98,20.14-48.98h10.81Z"/>
      </g>
    </g>
  </g>
</svg>